<svg xmlns="http://www.w3.org/2000/svg" width="430" height="430" viewBox="0 0 430 430">
  <g id="ms_image" transform="translate(-1216 -479)">
    <path id="Subtraction_7" data-name="Subtraction 7" d="M-4774-3494a216.589,216.589,0,0,1-43.33-4.368,213.929,213.929,0,0,1-40.358-12.528,215.033,215.033,0,0,1-36.521-19.823,216.544,216.544,0,0,1-31.819-26.254,216.482,216.482,0,0,1-26.254-31.819,215.025,215.025,0,0,1-19.823-36.521,213.906,213.906,0,0,1-12.528-40.358A216.589,216.589,0,0,1-4989-3709a216.589,216.589,0,0,1,4.368-43.33,213.9,213.9,0,0,1,12.528-40.358,215.006,215.006,0,0,1,19.823-36.521,216.522,216.522,0,0,1,26.254-31.82,216.52,216.52,0,0,1,31.819-26.253,215.051,215.051,0,0,1,36.521-19.823,213.927,213.927,0,0,1,40.358-12.527A216.589,216.589,0,0,1-4774-3924a216.589,216.589,0,0,1,43.33,4.368,213.927,213.927,0,0,1,40.358,12.527,215.033,215.033,0,0,1,36.521,19.823,216.52,216.52,0,0,1,31.819,26.253,216.529,216.529,0,0,1,26.254,31.82,215.063,215.063,0,0,1,19.823,36.521,213.929,213.929,0,0,1,12.527,40.358A216.592,216.592,0,0,1-4559-3709a216.592,216.592,0,0,1-4.368,43.33,213.937,213.937,0,0,1-12.527,40.358,215.047,215.047,0,0,1-19.823,36.521,216.489,216.489,0,0,1-26.254,31.819,216.544,216.544,0,0,1-31.819,26.254,215.032,215.032,0,0,1-36.521,19.823,213.929,213.929,0,0,1-40.358,12.528A216.589,216.589,0,0,1-4774-3494Zm0-421c-113.589,0-206,92.411-206,206s92.411,206,206,206,206-92.411,206-206S-4660.412-3915-4774-3915Z" transform="translate(6205 4403)" fill="#5cbb40"/>
    <path id="Union_11" data-name="Union 11" d="M-4925.511-3740.513a5.367,5.367,0,0,1-.667-.813l-58.978-59.066a5.361,5.361,0,0,1,0-7.572,5.341,5.341,0,0,1,7.56,0l55.938,56.023,167.958-168.212a5.341,5.341,0,0,1,7.56,0,5.359,5.359,0,0,1,0,7.571l-171,171.258a5.368,5.368,0,0,1-.666.811,5.322,5.322,0,0,1-3.816,1.568h-.108A5.323,5.323,0,0,1-4925.511-3740.513Z" transform="translate(6296.648 4524.333)" fill="#5cbb40"/>
  </g>
</svg>
